<svg width="618" height="273" viewBox="0 0 618 273" fill="none" xmlns="http://www.w3.org/2000/svg">
<path d="M290.519 204.76H276.347V191.608H270.461V224.325H276.347V210.266H290.519V224.325H296.405V191.608H290.519V204.76Z" fill="white"/>
<path d="M321.676 201.656C319.743 200.601 317.576 200.074 315.175 200.074C312.774 200.074 310.607 200.601 308.675 201.685C306.742 202.769 305.249 204.263 304.165 206.137C303.082 208.041 302.555 210.179 302.555 212.552C302.555 214.895 303.111 217.004 304.194 218.908C305.278 220.812 306.801 222.305 308.733 223.36C310.666 224.444 312.891 224.971 315.38 224.971C318.308 224.971 320.797 224.268 322.818 222.891C324.838 221.515 326.332 219.64 327.269 217.268H321.442C320.797 218.293 319.977 219.054 318.982 219.523C318.016 219.991 316.815 220.226 315.468 220.226C313.975 220.226 312.686 219.933 311.603 219.318C310.519 218.703 309.641 217.824 309.026 216.682C308.645 215.979 308.382 215.159 308.235 214.309H327.649C327.679 214.104 327.708 213.811 327.737 213.489C327.766 213.167 327.796 212.815 327.796 212.493C327.796 210.121 327.269 208.012 326.185 206.108C325.131 204.204 323.608 202.74 321.676 201.656ZM308.997 208.48C309.612 207.338 310.461 206.43 311.544 205.786C312.628 205.141 313.858 204.819 315.234 204.819C316.61 204.819 317.781 205.083 318.777 205.639C319.772 206.196 320.563 206.957 321.149 207.953C321.529 208.598 321.822 209.359 321.998 210.209H308.323C308.499 209.594 308.704 209.037 308.997 208.48Z" fill="white"/>
<path d="M343.137 200.074C340.179 200.074 337.749 200.777 335.875 202.212C334.001 203.618 332.859 205.581 332.449 208.041H338.247C338.452 207.016 338.979 206.225 339.799 205.669C340.619 205.112 341.702 204.849 343.049 204.849C344.601 204.849 345.801 205.259 346.621 206.079C347.441 206.899 347.851 208.1 347.851 209.711V210.56H340.853C337.983 210.56 335.758 211.204 334.147 212.493C332.537 213.782 331.746 215.569 331.746 217.853C331.746 220.079 332.537 221.807 334.118 223.096C335.699 224.385 337.807 225 340.501 225C342.288 225 343.898 224.649 345.362 223.975C346.592 223.389 347.646 222.569 348.583 221.515L349.403 224.356H353.503V209.828C353.503 206.811 352.595 204.438 350.75 202.71C348.905 200.982 346.328 200.074 343.137 200.074ZM344.864 219.552C343.898 219.991 342.727 220.226 341.351 220.226C340.062 220.226 339.096 219.991 338.452 219.464C337.807 218.966 337.485 218.263 337.485 217.355C337.485 216.447 337.807 215.744 338.452 215.246C339.096 214.749 340.062 214.485 341.351 214.485H347.851V214.807C347.851 215.862 347.588 216.799 347.09 217.619C346.563 218.468 345.801 219.083 344.864 219.552Z" fill="white"/>
<path d="M365.54 190.086H359.977V224.355H365.54V190.086Z" fill="white"/>
<path d="M381.266 218.087C380.504 217.326 380.124 216.242 380.124 214.778V205.756H387.913V200.748H380.124V194.714H375.409L374.648 200.748H369.758V205.756H374.531V214.924C374.531 217.97 375.321 220.313 376.932 221.924C378.542 223.535 380.856 224.355 383.872 224.355H387.971V219.2H384.604C383.169 219.2 382.056 218.82 381.266 218.087Z" fill="white"/>
<path d="M411.073 201.333C409.667 200.484 407.998 200.074 406.095 200.074C404.133 200.074 402.376 200.484 400.795 201.304C399.799 201.802 398.979 202.476 398.247 203.237V190.086H392.684V224.355H398.247V212.669C398.247 211.175 398.511 209.857 399.067 208.744C399.623 207.631 400.355 206.752 401.322 206.137C402.259 205.522 403.342 205.229 404.572 205.229C406.27 205.229 407.617 205.756 408.554 206.84C409.491 207.924 409.96 209.535 409.96 211.673V224.326H415.582V210.589C415.582 208.363 415.201 206.488 414.411 204.936C413.591 203.384 412.507 202.183 411.073 201.333Z" fill="white"/>
<path d="M429.753 206.137C430.807 205.493 432.008 205.171 433.355 205.171C434.965 205.171 436.371 205.581 437.542 206.372C438.713 207.162 439.533 208.305 440.031 209.769H445.683C445.243 207.836 444.453 206.137 443.311 204.673C442.169 203.208 440.734 202.066 439.006 201.275C437.279 200.484 435.375 200.074 433.326 200.074C430.895 200.074 428.728 200.601 426.796 201.656C424.863 202.71 423.34 204.204 422.257 206.108C421.174 208.012 420.617 210.179 420.617 212.523C420.617 214.895 421.174 217.033 422.257 218.937C423.34 220.841 424.863 222.305 426.796 223.389C428.728 224.444 430.895 224.971 433.326 224.971C435.405 224.971 437.308 224.561 439.006 223.77C440.705 222.979 442.139 221.837 443.281 220.372C444.423 218.908 445.214 217.238 445.653 215.334H440.031C439.504 216.828 438.655 217.97 437.513 218.732C436.371 219.494 434.995 219.874 433.413 219.874C432.066 219.874 430.866 219.552 429.782 218.937C428.699 218.322 427.85 217.443 427.235 216.33C426.62 215.217 426.298 213.958 426.298 212.552C426.298 211.146 426.62 209.886 427.235 208.773C427.85 207.66 428.699 206.782 429.753 206.137Z" fill="white"/>
<path d="M461.234 200.074C458.277 200.074 455.847 200.777 453.972 202.212C452.098 203.618 450.956 205.581 450.547 208.041H456.344C456.549 207.016 457.076 206.225 457.896 205.669C458.716 205.112 459.8 204.849 461.147 204.849C462.698 204.849 463.899 205.259 464.719 206.079C465.539 206.899 465.949 208.1 465.949 209.711V210.56H458.95C456.081 210.56 453.855 211.204 452.245 212.493C450.634 213.782 449.844 215.569 449.844 217.853C449.844 220.079 450.634 221.807 452.216 223.096C453.797 224.385 455.905 225 458.599 225C460.385 225 461.996 224.649 463.46 223.975C464.69 223.389 465.744 222.569 466.681 221.515L467.501 224.356H471.6V209.828C471.6 206.811 470.692 204.438 468.848 202.71C466.974 200.953 464.455 200.074 461.234 200.074ZM462.962 219.552C461.996 219.991 460.824 220.226 459.448 220.226C458.16 220.226 457.194 219.991 456.549 219.464C455.905 218.966 455.554 218.263 455.554 217.355C455.554 216.447 455.876 215.744 456.549 215.246C457.194 214.749 458.16 214.485 459.448 214.485H465.949V214.807C465.949 215.862 465.685 216.799 465.187 217.619C464.66 218.468 463.928 219.083 462.962 219.552Z" fill="white"/>
<path d="M483.81 203.121C483.575 203.355 483.341 203.589 483.136 203.823L482.17 200.719H478.07V224.327H483.634V212.786C483.634 210.619 484.161 208.949 485.186 207.836C486.211 206.723 487.733 206.167 489.754 206.167H492.828V200.748H490.398C487.704 200.748 485.479 201.539 483.81 203.121Z" fill="white"/>
<path d="M518.185 206.079C517.102 204.204 515.608 202.71 513.676 201.656C511.743 200.601 509.576 200.074 507.175 200.074C504.774 200.074 502.607 200.601 500.675 201.685C498.742 202.769 497.249 204.263 496.165 206.137C495.082 208.041 494.555 210.179 494.555 212.552C494.555 214.895 495.111 217.004 496.195 218.908C497.278 220.812 498.801 222.305 500.733 223.36C502.666 224.444 504.891 224.971 507.38 224.971C510.308 224.971 512.797 224.268 514.818 222.891C516.838 221.515 518.332 219.64 519.269 217.268H513.471C512.827 218.293 512.007 219.054 511.011 219.523C510.016 219.991 508.844 220.226 507.497 220.226C506.004 220.226 504.716 219.933 503.632 219.318C502.549 218.703 501.67 217.824 501.055 216.682C500.675 215.979 500.411 215.159 500.265 214.309H519.679C519.708 214.104 519.737 213.811 519.766 213.489C519.796 213.167 519.825 212.815 519.825 212.493C519.796 210.091 519.269 207.983 518.185 206.079ZM500.997 208.48C501.612 207.338 502.461 206.43 503.544 205.786C504.628 205.141 505.858 204.819 507.234 204.819C508.61 204.819 509.781 205.083 510.777 205.639C511.772 206.196 512.563 206.957 513.149 207.953C513.529 208.598 513.822 209.359 513.998 210.209H500.353C500.499 209.594 500.704 209.037 500.997 208.48Z" fill="white"/>
<path d="M275.117 89.6504L249.408 155.348L220.184 89.6504H202.527L240.974 175.763L235.909 188.944C233.683 194.655 231.487 198.99 229.32 201.949C227.153 204.936 224.664 206.986 221.824 208.187C218.984 209.359 215.265 209.945 210.697 209.945H203.816L204.811 225H211.868C218.925 225 224.782 223.975 229.408 221.924C234.035 219.874 238.076 216.535 241.472 211.878C244.898 207.221 248.236 200.806 251.545 192.634L292.569 89.6211H275.117V89.6504Z" fill="white"/>
<path d="M371.22 160.005C367.736 160.005 365.862 158.57 365.569 155.846V120.786C365.569 110.153 362.289 101.601 355.73 95.157C349.171 88.7131 342.524 85.5205 331.69 85.5205C321.529 85.5205 314.208 87.9809 307.649 92.9016C301.09 97.8223 297.049 104.413 295.585 112.731H311.514C312.656 108.396 314.97 105.086 318.454 102.831C321.939 100.546 325.599 99.404 331.543 99.404C338.395 99.404 341.616 101.308 345.306 105.116C349.024 108.923 350.869 114.518 350.869 121.87V124.506H321.939C312.129 124.506 304.34 126.907 298.572 131.711C292.803 136.515 289.934 142.929 289.934 151.013C289.934 159.097 292.803 165.512 298.572 170.315C304.34 175.119 312.012 177.521 321.587 177.521C327.854 177.521 333.739 176.261 339.215 173.742C343.695 171.692 347.619 168.704 351.016 164.867C353.651 171.311 360.386 175.177 369.463 175.177H376.11L376.198 160.034H371.22V160.005ZM337.487 160.357C333.154 162.524 328.059 163.608 322.261 163.608C316.785 163.608 312.568 162.436 309.582 160.093C306.624 157.75 305.131 154.528 305.131 150.457C305.131 146.239 306.654 142.958 309.67 140.644C312.686 138.301 316.932 137.13 322.437 137.13H350.869V138.184C350.869 143.105 349.727 147.498 347.443 151.335C345.13 155.172 341.821 158.189 337.487 160.357Z" fill="white"/>
<path d="M165.222 54.7954H149.439L96 175.207H113.247L125.487 147.616H189.116L201.356 175.207H218.603L165.222 54.7954ZM131.87 133.234L157.316 75.9135L182.762 133.234H131.87Z" fill="white"/>
<path d="M423.985 104.91C424.571 101.308 425.479 97.6172 426.679 93.956C425.156 93.0773 423.604 92.2864 422.023 91.5249C420.296 90.7048 418.597 90.0311 416.957 89.416C415.786 92.7844 414.82 96.2699 414.059 99.814C415.201 100.253 416.343 100.751 417.543 101.308C419.505 102.216 421.701 103.387 423.985 104.91Z" fill="#EF0B06"/>
<path d="M449.871 165.219C450.222 165.219 450.603 165.219 450.984 165.248H451.013C451.891 165.248 452.799 165.248 453.619 165.19C454.615 165.16 455.581 165.102 456.576 165.014V149.08V148.231C456.459 138.448 454.351 129.514 451.042 121.577C447.733 129.514 445.625 138.448 445.508 148.231C445.508 148.231 445.508 148.816 445.508 149.021C445.508 149.051 445.508 149.08 445.508 149.08V165.014C446.972 165.131 448.436 165.219 449.9 165.219C449.9 165.219 449.9 165.219 449.871 165.219Z" fill="url(#paint0_linear_8471_25722)"/>
<path d="M456.606 165.014C455.611 165.102 454.644 165.161 453.649 165.19C452.829 165.249 451.921 165.249 451.043 165.249H451.014C450.633 165.249 450.252 165.249 449.901 165.219C449.901 165.219 449.93 165.219 449.959 165.219C448.495 165.19 447.031 165.131 445.567 165.014H445.538C438.129 164.399 430.838 162.525 423.957 159.449C424.631 160.445 425.304 161.412 426.036 162.32C429.316 166.537 433.122 169.876 437.28 172.22C442.697 175.266 447.441 175.91 449.784 175.998H449.842C450.135 175.998 450.369 176.027 450.574 176.027C450.809 176.027 451.014 176.027 451.131 176.027C451.248 176.027 451.453 176.027 451.687 176.027C451.892 176.027 452.156 176.027 452.419 175.998H452.478C454.82 175.881 459.535 175.266 464.981 172.22C469.168 169.876 472.946 166.537 476.225 162.32C476.928 161.412 477.631 160.445 478.304 159.449C471.423 162.525 464.132 164.399 456.723 165.014C456.636 165.014 456.606 165.014 456.606 165.014Z" fill="#DD2112"/>
<path d="M475.434 93.956C476.634 97.6172 477.542 101.308 478.128 104.91C480.412 103.387 482.608 102.216 484.57 101.308C485.741 100.751 486.912 100.253 488.054 99.814C487.322 96.2699 486.326 92.7844 485.155 89.416C483.515 90.0311 481.817 90.7341 480.089 91.5249C478.508 92.2864 476.956 93.1066 475.434 93.956Z" fill="#2B8C17"/>
<path d="M416.957 89.4162C418.597 90.0313 420.295 90.7342 422.023 91.525C423.633 92.2573 425.185 93.0774 426.679 93.9561C427.996 90.002 429.636 86.0478 431.627 82.1522C435.463 74.6833 440.412 67.8587 445.185 63.4066C445.302 63.2894 445.448 63.1723 445.565 63.0551C445.712 62.9087 445.858 62.7622 446.005 62.6158C446.063 62.5572 446.093 62.5279 446.151 62.4693C446.21 62.4107 446.268 62.3521 446.327 62.2936C446.356 62.2643 446.415 62.2057 446.444 62.1764C446.473 62.1471 446.532 62.1178 446.561 62.0592C446.59 62.0299 446.59 62.0299 446.62 62.0007C446.649 61.9714 446.678 61.9421 446.707 61.9128C446.737 61.8835 446.737 61.8835 446.766 61.8542C446.795 61.8249 446.825 61.7956 446.854 61.7663C446.883 61.737 446.883 61.737 446.912 61.7078C446.942 61.6785 446.971 61.6492 447 61.6199L447.03 61.5906L447.059 61.5613C447.088 61.532 447.117 61.5027 447.147 61.4734C447.176 61.4441 447.205 61.4149 447.235 61.4149C447.264 61.3856 447.293 61.3563 447.322 61.327C447.352 61.2977 447.381 61.2684 447.41 61.2684C447.439 61.2391 447.469 61.2098 447.498 61.1805C447.527 61.1512 447.557 61.1512 447.557 61.122C447.586 61.0927 447.615 61.0634 447.644 61.0341C447.674 61.0048 447.703 60.9755 447.732 60.9462C447.762 60.9169 447.791 60.8876 447.82 60.8876C447.82 60.8876 447.849 60.8876 447.849 60.8584C447.879 60.8291 447.908 60.8291 447.908 60.7998C447.937 60.7705 447.967 60.7412 447.996 60.7412C448.025 60.7119 448.054 60.6826 448.084 60.6533C448.113 60.624 448.142 60.624 448.142 60.5947C448.172 60.5654 448.201 60.5362 448.259 60.5069C448.289 60.4776 448.318 60.4776 448.318 60.4483C448.347 60.419 448.377 60.3897 448.435 60.3604C448.464 60.3311 448.494 60.3311 448.494 60.3018C448.523 60.3018 448.523 60.2725 448.552 60.2725C448.581 60.2433 448.582 60.2433 448.611 60.214C448.64 60.1847 448.669 60.1847 448.669 60.1554C448.699 60.1261 448.728 60.0968 448.786 60.0675C448.816 60.0382 448.845 60.0382 448.845 60.0089C448.874 59.9796 448.904 59.9504 448.962 59.9211C448.991 59.8918 448.991 59.8918 449.021 59.8625C449.05 59.8332 449.109 59.8039 449.138 59.7746C449.167 59.7746 449.167 59.7453 449.196 59.7453C449.226 59.716 449.284 59.6867 449.314 59.6574C449.343 59.6574 449.343 59.6282 449.372 59.6282C449.401 59.5989 449.46 59.5696 449.489 59.5403C449.519 59.5403 449.519 59.511 449.548 59.511C449.577 59.4817 449.636 59.4524 449.665 59.4231C449.694 59.4231 449.694 59.3938 449.723 59.3938C449.753 59.3646 449.782 59.3646 449.811 59.3353C449.811 59.3353 449.841 59.3353 449.841 59.306L449.87 59.2767C449.899 59.2474 449.928 59.2474 449.958 59.2181C449.958 59.2181 449.987 59.2181 449.987 59.1888C449.987 59.1888 450.016 59.1888 450.016 59.1595C450.046 59.1302 450.104 59.1009 450.133 59.0716C450.192 59.0424 450.251 59.0131 450.309 58.9838C450.309 58.9838 450.338 58.9838 450.338 58.9545C450.368 58.9252 450.426 58.9252 450.456 58.8959C450.485 58.8959 450.485 58.8666 450.514 58.8666C450.543 58.8373 450.573 58.8373 450.631 58.808C450.631 58.808 450.661 58.808 450.661 58.7787C450.719 58.7495 450.748 58.7495 450.807 58.7202H450.836C450.865 58.7202 450.865 58.7202 450.895 58.6909C450.924 58.6909 450.953 58.6909 450.983 58.6909C451.012 58.6909 451.041 58.6909 451.07 58.6909C451.1 58.6909 451.1 58.6909 451.129 58.7202H451.158C451.188 58.7202 451.246 58.7495 451.305 58.7787C451.305 58.7787 451.334 58.7788 451.334 58.808C451.363 58.808 451.393 58.8373 451.451 58.8666C451.48 58.8666 451.48 58.8666 451.51 58.8959C451.539 58.9252 451.598 58.9252 451.627 58.9545C451.627 58.9545 451.656 58.9545 451.656 58.9838C451.715 59.0131 451.773 59.0424 451.832 59.0716C451.861 59.1009 451.92 59.1302 451.949 59.1595C451.949 59.1595 451.978 59.1595 451.978 59.1888C452.008 59.2181 452.037 59.2181 452.066 59.2474L452.095 59.2767L452.125 59.306C452.154 59.3353 452.212 59.3646 452.242 59.3938C452.271 59.3938 452.271 59.4231 452.3 59.4231C452.33 59.4524 452.388 59.4817 452.417 59.511C452.447 59.511 452.447 59.5403 452.476 59.5403C452.476 59.5403 452.505 59.5403 452.505 59.5696C452.535 59.5989 452.564 59.5989 452.593 59.6282C452.622 59.6282 452.622 59.6574 452.652 59.6574C452.681 59.6867 452.74 59.716 452.769 59.7453C452.798 59.7453 452.798 59.7746 452.827 59.7746C452.857 59.8039 452.915 59.8332 452.945 59.8625C452.974 59.8918 452.974 59.8918 453.003 59.9211C453.032 59.9504 453.062 59.9504 453.091 59.9796L453.12 60.0089C453.149 60.0382 453.149 60.0382 453.179 60.0675C453.208 60.0968 453.267 60.1261 453.296 60.1554C453.325 60.1847 453.354 60.1847 453.354 60.214C453.384 60.2433 453.413 60.2433 453.413 60.2725L453.442 60.3018C453.472 60.3311 453.472 60.3311 453.501 60.3604C453.53 60.3897 453.589 60.419 453.618 60.4483C453.647 60.4776 453.647 60.4776 453.677 60.5069C453.706 60.5362 453.735 60.5654 453.764 60.5947C453.764 60.5947 453.764 60.5947 453.794 60.5947C453.823 60.624 453.823 60.624 453.852 60.6533L453.882 60.6826C453.911 60.7119 453.94 60.7412 453.969 60.7412C453.999 60.7705 454.028 60.7705 454.028 60.7998C454.057 60.8291 454.086 60.8583 454.145 60.8876C454.174 60.9169 454.174 60.9169 454.204 60.9462C454.233 60.9755 454.262 61.0048 454.321 61.0341C454.35 61.0634 454.35 61.0634 454.379 61.0927C454.409 61.122 454.438 61.1512 454.496 61.1805C454.526 61.2098 454.526 61.2098 454.555 61.2391C454.584 61.2684 454.614 61.2977 454.672 61.327C454.701 61.3563 454.701 61.3563 454.731 61.3856C454.76 61.4149 454.819 61.4441 454.848 61.4734L454.877 61.5027C454.906 61.532 454.936 61.5613 454.994 61.5906L455.024 61.6199C455.053 61.6492 455.111 61.6785 455.141 61.7371L455.17 61.7663C455.199 61.7956 455.258 61.8542 455.287 61.8835C455.346 61.9421 455.404 62.0007 455.463 62.0592L455.492 62.0885C455.609 62.2057 455.726 62.2936 455.814 62.4107C455.814 62.4107 455.814 62.4107 455.843 62.44C455.902 62.4986 455.931 62.5279 455.99 62.5865C456.107 62.7036 456.224 62.7915 456.341 62.9087C456.4 62.9672 456.458 63.0258 456.517 63.0844C456.605 63.1723 456.693 63.2601 456.81 63.348L456.839 63.3773C461.612 67.8294 466.561 74.654 470.397 82.1229C472.388 85.9892 474.057 89.9434 475.345 93.9268C476.868 93.0481 478.42 92.2573 480.001 91.4958C481.729 90.6756 483.427 90.002 485.067 89.3869C480.821 77.1143 474.086 66.3063 467.527 59.0131C466.356 57.7243 465.214 56.5527 464.101 55.4983C463.867 55.2639 463.603 55.0296 463.34 54.7953C460.353 51.9542 456.283 48.0879 451.305 48C451.246 48 451.188 48 450.983 48C450.778 48 450.719 48 450.661 48C445.683 48.0586 441.612 51.9542 438.626 54.7953C438.509 54.9125 438.391 55.0296 438.274 55.1175C438.128 55.2639 437.981 55.3811 437.864 55.4983C430.368 62.5572 421.935 75.0055 416.957 89.4162Z" fill="url(#paint1_linear_8471_25722)"/>
<path d="M423.984 104.911C430.661 109.363 438.098 116.656 442.256 128.43V128.46C442.344 128.723 442.432 128.987 442.52 129.251C442.52 129.28 442.549 129.309 442.549 129.368C442.637 129.602 442.725 129.866 442.783 130.1C442.813 130.159 442.813 130.246 442.842 130.305C442.9 130.51 442.988 130.744 443.047 130.949C443.076 131.037 443.105 131.154 443.135 131.242C443.193 131.447 443.252 131.623 443.31 131.828C443.34 131.945 443.369 132.062 443.398 132.18C443.457 132.355 443.486 132.531 443.545 132.707C443.574 132.853 443.633 133 443.662 133.146C443.691 133.293 443.75 133.439 443.779 133.586C443.838 133.761 443.867 133.966 443.896 134.142C443.925 134.259 443.955 134.376 443.984 134.493C444.042 134.699 444.072 134.933 444.13 135.138C444.16 135.226 444.16 135.314 444.189 135.431C444.247 135.665 444.277 135.899 444.335 136.134C444.365 136.222 444.365 136.28 444.394 136.368C444.452 136.632 444.482 136.895 444.54 137.159C444.54 137.217 444.57 137.276 444.57 137.335C444.628 137.628 444.657 137.891 444.716 138.184C444.716 138.213 444.716 138.272 444.745 138.301C444.804 138.594 444.833 138.887 444.892 139.209C444.892 139.238 444.892 139.268 444.921 139.297C444.98 139.619 445.009 139.941 445.038 140.264V140.293C445.067 140.615 445.126 140.967 445.155 141.318C445.155 141.318 445.155 141.318 445.155 141.347C445.184 141.699 445.214 142.021 445.272 142.373C445.477 144.452 445.565 146.649 445.565 148.934C445.565 148.758 445.565 148.143 445.565 148.143C445.682 138.36 447.791 129.426 451.099 121.489C450.426 119.878 449.665 118.296 448.874 116.744C448.61 116.246 448.347 115.748 448.054 115.25C447.673 114.576 447.293 113.932 446.912 113.287C446.678 112.907 446.444 112.555 446.209 112.174C441.319 104.676 434.672 98.4081 426.737 93.8389C425.478 97.6466 424.57 101.308 423.984 104.911Z" fill="url(#paint2_linear_8471_25722)"/>
<path d="M455.962 112.292C454.059 115.221 452.419 118.325 451.043 121.606C454.352 129.544 456.46 138.477 456.577 148.26V149.109C456.577 149.109 456.577 149.109 456.577 149.08C456.577 128.723 464.542 116.334 472.917 108.923C473.004 108.835 473.092 108.777 473.18 108.689C473.239 108.63 473.327 108.572 473.385 108.513C474.966 107.137 476.577 105.965 478.129 104.94C477.543 101.337 476.635 97.6466 475.435 93.9854C467.529 98.5253 460.852 104.793 455.962 112.292Z" fill="url(#paint3_linear_8471_25722)"/>
<path d="M445.508 165.014C443.81 164.399 441.848 162.641 439.739 161.03C435.845 158.072 431.54 153.005 428.085 144.423C428.056 144.335 427.997 144.247 427.968 144.13C427.91 143.983 427.851 143.866 427.792 143.72C427.734 143.573 427.675 143.398 427.617 143.251C427.587 143.163 427.558 143.105 427.529 143.017C427.265 142.343 427.031 141.611 426.767 140.908C426.68 140.615 426.563 140.322 426.475 140.029C425.596 137.305 424.893 134.64 424.337 131.916C424.279 131.652 424.22 131.359 424.191 131.096C424.161 131.008 424.161 130.949 424.132 130.861C422.902 124.066 422.697 117.037 423.429 109.011C423.547 107.664 423.722 106.316 423.956 104.94C421.672 103.417 419.476 102.245 417.514 101.337C416.343 100.781 415.172 100.283 414.03 99.8433C413.561 102.069 413.21 104.325 412.946 106.609C412.888 107.078 412.859 107.547 412.8 107.986C412.127 115.308 412.156 122.074 413.005 128.577C413.122 129.514 413.269 130.481 413.415 131.418C413.561 132.326 413.708 133.205 413.883 134.083C414.498 137.217 415.318 140.322 416.314 143.398C418.159 149.051 420.443 154.03 423.137 158.336C423.488 158.863 423.869 159.097 423.869 159.478C430.779 162.524 438.07 164.399 445.508 165.014Z" fill="url(#paint4_linear_8471_25722)"/>
<path d="M437.221 172.19C433.033 169.847 429.256 166.508 425.977 162.29C425.274 161.382 424.571 160.415 423.898 159.419C423.4 159.419 423.224 159.097 422.492 158.775C419.827 157.516 417.221 156.08 414.732 154.469C400.823 145.594 390.75 127.728 390.75 111.999C390.75 111.149 390.75 110.3 390.78 109.48C390.955 103.768 391.658 99.0233 392.244 96.8558C393.005 96.7093 394.089 96.5336 395.494 96.4457C399.535 96.2114 406.123 96.6801 414.059 99.7555C414.791 96.2114 415.786 92.7259 416.958 89.3575C409.637 86.6336 403.371 85.8134 399.037 85.667C398.891 85.667 398.774 85.667 398.627 85.667C397.017 85.6084 394.294 85.6377 391.541 86.0478C391.219 86.1064 390.897 86.1649 390.575 86.2235C390.575 86.2235 390.575 86.2235 390.545 86.2235C388.349 86.6629 386.212 87.3951 384.806 88.6253C384.689 88.7132 384.601 88.8303 384.484 88.9182C383.225 90.1777 381.937 92.2866 380.941 99.0819C380.882 99.5798 380.795 100.078 380.736 100.576C380.297 104.149 380.062 108.22 380.062 111.969C380.062 115.133 380.385 118.413 381.029 121.723C381.146 122.338 381.263 122.924 381.409 123.539C381.468 123.832 381.556 124.154 381.614 124.447C382.932 129.895 385.07 135.372 387.91 140.527C391.541 147.118 396.109 152.946 401.38 157.691C403.781 159.859 406.328 161.792 408.964 163.491C421.321 171.399 435.376 175.675 449.666 175.91C447.382 175.88 442.667 175.265 437.221 172.19Z" fill="url(#paint5_linear_8471_25722)"/>
<path d="M478.948 158.306C481.173 154.791 483.106 150.808 484.745 146.356C485.097 145.389 485.448 144.393 485.77 143.398C489.372 132.267 490.514 121.02 489.284 107.986C489.108 106.141 488.874 104.266 488.552 102.45C488.464 101.952 488.376 101.483 488.289 100.986C488.289 100.927 488.259 100.898 488.259 100.839C488.259 100.781 488.23 100.722 488.23 100.663C488.171 100.37 488.113 100.107 488.054 99.814C486.912 100.253 485.77 100.751 484.57 101.308C482.608 102.216 480.412 103.387 478.128 104.91C478.216 105.408 478.274 105.906 478.333 106.404C478.45 107.283 478.567 108.132 478.625 108.982C479.416 117.534 479.123 124.945 477.688 132.15C477.161 134.786 476.459 137.393 475.609 140.029C474.76 142.636 473.853 144.95 472.886 147.03C472.857 147.088 472.828 147.176 472.798 147.235C472.74 147.381 472.681 147.498 472.623 147.645C470.778 151.511 468.757 154.528 466.737 156.9C466.678 156.988 466.591 157.076 466.532 157.135C466.503 157.164 466.473 157.223 466.415 157.252C466.356 157.31 466.327 157.369 466.269 157.398C466.21 157.457 466.151 157.545 466.093 157.603C466.064 157.633 466.034 157.662 466.034 157.691C462.667 161.352 459.299 164.018 456.664 164.984C464.072 164.369 471.364 162.495 478.245 159.419C478.216 159.068 478.625 158.833 478.948 158.306Z" fill="url(#paint6_linear_8471_25722)"/>
<path d="M521.172 99.1403C520.206 92.345 518.888 90.2361 517.629 88.9767C517.19 88.5373 516.662 88.1565 516.048 87.8051C512.358 85.7255 506.238 85.6376 503.486 85.6962C499.152 85.8133 492.71 86.6042 485.155 89.416C486.326 92.7844 487.293 96.2699 488.054 99.814C497.161 96.2699 504.423 96.2113 508.2 96.6214C508.873 96.7092 509.43 96.7971 509.869 96.885C510.484 99.2868 511.304 104.823 511.362 111.384C511.362 111.589 511.362 111.794 511.362 112.028C511.362 117.915 509.957 124.125 507.439 130.012C507.234 130.51 506.999 131.008 506.794 131.477C502.549 140.762 495.638 149.197 487.381 154.469C487.146 154.616 486.941 154.762 486.707 154.879C484.394 156.315 482.022 157.603 479.592 158.746C478.889 159.068 478.713 159.39 478.186 159.39C477.513 160.386 476.839 161.352 476.107 162.26C472.827 166.478 469.021 169.817 464.863 172.16C459.446 175.207 454.702 175.851 452.359 175.939C465.741 175.734 478.947 171.955 490.719 164.984C490.777 164.955 490.865 164.897 490.924 164.867C491.626 164.428 492.358 164.018 493.061 163.549C501.553 158.101 508.844 150.164 514.144 140.556C518.419 132.795 521.084 124.359 521.787 116.363C521.933 114.898 521.992 113.434 521.992 111.999C522.05 107.781 521.728 103.065 521.172 99.1403Z" fill="url(#paint7_linear_8471_25722)"/>
<defs>
<linearGradient id="paint0_linear_8471_25722" x1="451.061" y1="151.466" x2="451.061" y2="129.611" gradientUnits="userSpaceOnUse">
<stop stop-color="#F15E22"/>
<stop offset="1" stop-color="#EF0B06"/>
</linearGradient>
<linearGradient id="paint1_linear_8471_25722" x1="418.281" y1="70.9884" x2="453.989" y2="70.9884" gradientUnits="userSpaceOnUse">
<stop stop-color="#FCA800"/>
<stop offset="0.1086" stop-color="#F7A804"/>
<stop offset="0.2331" stop-color="#E9A910"/>
<stop offset="0.3656" stop-color="#D2AB24"/>
<stop offset="0.5038" stop-color="#B2AD40"/>
<stop offset="0.6462" stop-color="#89B064"/>
<stop offset="0.7923" stop-color="#56B390"/>
<stop offset="0.9387" stop-color="#1BB7C3"/>
<stop offset="1" stop-color="#00B9DA"/>
</linearGradient>
<linearGradient id="paint2_linear_8471_25722" x1="441.547" y1="124.596" x2="430.866" y2="109.612" gradientUnits="userSpaceOnUse">
<stop offset="0.2043" stop-color="#F15E22"/>
<stop offset="0.9797" stop-color="#FCB514"/>
</linearGradient>
<linearGradient id="paint3_linear_8471_25722" x1="455.915" y1="150.523" x2="473.4" y2="75.5454" gradientUnits="userSpaceOnUse">
<stop offset="0.0203001" stop-color="#FCB514"/>
<stop offset="0.7957" stop-color="#F15E22"/>
</linearGradient>
<linearGradient id="paint4_linear_8471_25722" x1="421.645" y1="132.421" x2="468.4" y2="132.421" gradientUnits="userSpaceOnUse">
<stop stop-color="#FCA800"/>
<stop offset="0.1039" stop-color="#F7A804"/>
<stop offset="0.2284" stop-color="#E8AA11"/>
<stop offset="0.3635" stop-color="#D0AC26"/>
<stop offset="0.5061" stop-color="#AEAF44"/>
<stop offset="0.6547" stop-color="#83B36A"/>
<stop offset="0.8082" stop-color="#4EB799"/>
<stop offset="0.9629" stop-color="#10BDCF"/>
<stop offset="1" stop-color="#00BEDD"/>
</linearGradient>
<linearGradient id="paint5_linear_8471_25722" x1="397.29" y1="109.222" x2="418.466" y2="136.085" gradientUnits="userSpaceOnUse">
<stop stop-color="#FCA800"/>
<stop offset="0.7957" stop-color="#F15E22"/>
</linearGradient>
<linearGradient id="paint6_linear_8471_25722" x1="468.057" y1="172.221" x2="480.715" y2="106.527" gradientUnits="userSpaceOnUse">
<stop stop-color="#FCB514"/>
<stop offset="0.2967" stop-color="#009444"/>
<stop offset="0.305" stop-color="#009547"/>
<stop offset="0.4773" stop-color="#00A27B"/>
<stop offset="0.6388" stop-color="#00ACA4"/>
<stop offset="0.7846" stop-color="#00B3C2"/>
<stop offset="0.9099" stop-color="#00B7D4"/>
<stop offset="1" stop-color="#00B9DA"/>
</linearGradient>
<linearGradient id="paint7_linear_8471_25722" x1="480.581" y1="184.57" x2="491.005" y2="124.274" gradientUnits="userSpaceOnUse">
<stop offset="0.268" stop-color="#EF4136"/>
<stop offset="0.7957" stop-color="#F15E22"/>
</linearGradient>
</defs>
</svg>
