<svg width="216" height="150" viewBox="0 0 216 150" fill="none" xmlns="http://www.w3.org/2000/svg">
<path d="M85.1346 72.0082C85.6297 68.9691 86.3972 65.8558 87.4122 62.7673C86.1249 62.026 84.8128 61.3589 83.4759 60.7165C82.0153 60.0247 80.5794 59.4564 79.193 58.9375C78.2028 61.779 77.3859 64.7192 76.7422 67.7089C77.7077 68.0796 78.6732 68.4996 79.6882 68.9691C81.3469 69.735 83.2036 70.7234 85.1346 72.0082Z" fill="#EF0B06"/>
<path d="M107.021 122.883C107.318 122.883 107.64 122.883 107.961 122.907H107.986C108.729 122.907 109.496 122.907 110.19 122.858C111.031 122.833 111.848 122.784 112.69 122.71V109.268V108.552C112.591 100.299 110.808 92.7633 108.011 86.0674C105.214 92.7633 103.431 100.299 103.332 108.552C103.332 108.552 103.332 109.046 103.332 109.219C103.332 109.244 103.332 109.268 103.332 109.268V122.71C104.57 122.809 105.808 122.883 107.045 122.883C107.045 122.883 107.045 122.883 107.021 122.883Z" fill="url(#paint0_linear_8473_25836)"/>
<path d="M112.713 122.71C111.871 122.784 111.054 122.834 110.212 122.858C109.519 122.908 108.752 122.908 108.009 122.908H107.984C107.662 122.908 107.341 122.908 107.044 122.883C107.044 122.883 107.068 122.883 107.093 122.883C105.855 122.858 104.617 122.809 103.38 122.71H103.355C97.0915 122.191 90.9271 120.61 85.1094 118.016C85.6788 118.856 86.2482 119.671 86.8671 120.437C89.6398 123.995 92.8581 126.812 96.3735 128.788C100.953 131.358 104.964 131.902 106.945 131.976H106.994C107.242 131.976 107.44 132.001 107.613 132.001C107.811 132.001 107.984 132.001 108.083 132.001C108.182 132.001 108.356 132.001 108.554 132.001C108.727 132.001 108.95 132.001 109.173 131.976H109.222C111.203 131.877 115.188 131.358 119.793 128.788C123.333 126.812 126.527 123.995 129.3 120.437C129.894 119.671 130.488 118.856 131.057 118.016C125.239 120.61 119.075 122.191 112.812 122.71C112.738 122.71 112.713 122.71 112.713 122.71Z" fill="#DD2112"/>
<path d="M128.633 62.7673C129.648 65.8558 130.415 68.9691 130.91 72.0082C132.841 70.7234 134.698 69.735 136.357 68.9691C137.347 68.4996 138.337 68.0796 139.303 67.7089C138.684 64.7192 137.842 61.779 136.852 58.9375C135.466 59.4564 134.03 60.0494 132.569 60.7165C131.232 61.3589 129.92 62.0507 128.633 62.7673Z" fill="#2B8C17"/>
<path d="M79.1914 58.9375C80.5778 59.4564 82.0136 60.0494 83.4743 60.7165C84.8359 61.3342 86.148 62.0261 87.4105 62.7673C88.5246 59.4317 89.9109 56.0961 91.5944 52.8099C94.8375 46.5093 99.0213 40.7522 103.057 36.9966C103.156 36.8977 103.279 36.7989 103.378 36.7001C103.502 36.5765 103.626 36.453 103.75 36.3294C103.799 36.28 103.824 36.2553 103.874 36.2059C103.923 36.1565 103.973 36.1071 104.022 36.0576C104.047 36.0329 104.096 35.9835 104.121 35.9588C104.146 35.9341 104.195 35.9094 104.22 35.86C104.245 35.8353 104.245 35.8353 104.27 35.8106C104.294 35.7859 104.319 35.7612 104.344 35.7364C104.369 35.7117 104.369 35.7117 104.393 35.687C104.418 35.6623 104.443 35.6376 104.468 35.6129C104.492 35.5882 104.492 35.5882 104.517 35.5635C104.542 35.5388 104.567 35.5141 104.591 35.4894L104.616 35.4647L104.641 35.4399C104.666 35.4152 104.691 35.3905 104.715 35.3658C104.74 35.3411 104.765 35.3164 104.79 35.3164C104.814 35.2917 104.839 35.267 104.864 35.2423C104.889 35.2176 104.913 35.1929 104.938 35.1929C104.963 35.1682 104.988 35.1434 105.012 35.1187C105.037 35.094 105.062 35.094 105.062 35.0693C105.087 35.0446 105.111 35.0199 105.136 34.9952C105.161 34.9705 105.186 34.9458 105.21 34.9211C105.235 34.8964 105.26 34.8717 105.285 34.8717C105.285 34.8717 105.309 34.8717 105.309 34.847C105.334 34.8222 105.359 34.8222 105.359 34.7975C105.384 34.7728 105.408 34.7481 105.433 34.7481C105.458 34.7234 105.483 34.6987 105.507 34.674C105.532 34.6493 105.557 34.6493 105.557 34.6246C105.582 34.5999 105.606 34.5752 105.656 34.5504C105.681 34.5257 105.706 34.5257 105.706 34.501C105.73 34.4763 105.755 34.4516 105.805 34.4269C105.829 34.4022 105.854 34.4022 105.854 34.3775C105.879 34.3775 105.879 34.3528 105.904 34.3528C105.928 34.3281 105.928 34.3281 105.953 34.3034C105.978 34.2787 106.003 34.2787 106.003 34.2539C106.027 34.2292 106.052 34.2045 106.102 34.1798C106.126 34.1551 106.151 34.1551 106.151 34.1304C106.176 34.1057 106.201 34.081 106.25 34.0563C106.275 34.0316 106.275 34.0316 106.3 34.0069C106.324 33.9822 106.374 33.9574 106.399 33.9327C106.423 33.9327 106.423 33.908 106.448 33.908C106.473 33.8833 106.522 33.8586 106.547 33.8339C106.572 33.8339 106.572 33.8092 106.597 33.8092C106.622 33.7845 106.671 33.7598 106.696 33.7351C106.721 33.7351 106.721 33.7104 106.745 33.7104C106.77 33.6857 106.82 33.6609 106.844 33.6362C106.869 33.6362 106.869 33.6115 106.894 33.6115C106.919 33.5868 106.943 33.5868 106.968 33.5621C106.968 33.5621 106.993 33.5621 106.993 33.5374L107.018 33.5127C107.042 33.488 107.067 33.488 107.092 33.4633C107.092 33.4633 107.117 33.4633 107.117 33.4386C107.117 33.4386 107.141 33.4386 107.141 33.4139C107.166 33.3891 107.216 33.3644 107.24 33.3397C107.29 33.315 107.339 33.2903 107.389 33.2656C107.389 33.2656 107.414 33.2656 107.414 33.2409C107.438 33.2162 107.488 33.2162 107.513 33.1915C107.537 33.1915 107.537 33.1668 107.562 33.1668C107.587 33.1421 107.612 33.1421 107.661 33.1174C107.661 33.1174 107.686 33.1174 107.686 33.0927C107.736 33.0679 107.76 33.0679 107.81 33.0432H107.835C107.859 33.0432 107.859 33.0432 107.884 33.0185C107.909 33.0185 107.934 33.0185 107.958 33.0185C107.983 33.0185 108.008 33.0185 108.033 33.0185C108.057 33.0185 108.057 33.0185 108.082 33.0432H108.107C108.132 33.0432 108.181 33.0679 108.231 33.0927C108.231 33.0927 108.255 33.0927 108.255 33.1174C108.28 33.1174 108.305 33.1421 108.354 33.1668C108.379 33.1668 108.379 33.1668 108.404 33.1915C108.429 33.2162 108.478 33.2162 108.503 33.2409C108.503 33.2409 108.528 33.2409 108.528 33.2656C108.577 33.2903 108.627 33.315 108.676 33.3397C108.701 33.3644 108.751 33.3891 108.775 33.4139C108.775 33.4139 108.8 33.4139 108.8 33.4386C108.825 33.4633 108.85 33.4633 108.874 33.488L108.899 33.5127L108.924 33.5374C108.949 33.5621 108.998 33.5868 109.023 33.6115C109.048 33.6115 109.048 33.6362 109.072 33.6362C109.097 33.6609 109.147 33.6857 109.171 33.7104C109.196 33.7104 109.196 33.7351 109.221 33.7351C109.221 33.7351 109.246 33.7351 109.246 33.7598C109.27 33.7845 109.295 33.7845 109.32 33.8092C109.345 33.8092 109.345 33.8339 109.369 33.8339C109.394 33.8586 109.444 33.8833 109.468 33.908C109.493 33.908 109.493 33.9327 109.518 33.9327C109.543 33.9574 109.592 33.9822 109.617 34.0069C109.642 34.0316 109.642 34.0316 109.667 34.0563C109.691 34.081 109.716 34.081 109.741 34.1057L109.766 34.1304C109.79 34.1551 109.79 34.1551 109.815 34.1798C109.84 34.2045 109.889 34.2292 109.914 34.2539C109.939 34.2787 109.964 34.2787 109.964 34.3034C109.988 34.3281 110.013 34.3281 110.013 34.3528L110.038 34.3775C110.063 34.4022 110.063 34.4022 110.087 34.4269C110.112 34.4516 110.162 34.4763 110.186 34.501C110.211 34.5257 110.211 34.5257 110.236 34.5504C110.261 34.5752 110.285 34.5999 110.31 34.6246C110.31 34.6246 110.31 34.6246 110.335 34.6246C110.36 34.6493 110.36 34.6493 110.384 34.674L110.409 34.6987C110.434 34.7234 110.459 34.7481 110.483 34.7481C110.508 34.7728 110.533 34.7728 110.533 34.7975C110.558 34.8222 110.583 34.8469 110.632 34.8717C110.657 34.8964 110.657 34.8964 110.682 34.9211C110.706 34.9458 110.731 34.9705 110.781 34.9952C110.805 35.0199 110.805 35.0199 110.83 35.0446C110.855 35.0693 110.88 35.094 110.929 35.1187C110.954 35.1434 110.954 35.1434 110.979 35.1682C111.003 35.1929 111.028 35.2176 111.078 35.2423C111.102 35.267 111.102 35.267 111.127 35.2917C111.152 35.3164 111.201 35.3411 111.226 35.3658L111.251 35.3905C111.276 35.4152 111.3 35.44 111.35 35.4647L111.375 35.4894C111.399 35.5141 111.449 35.5388 111.474 35.5882L111.498 35.6129C111.523 35.6376 111.573 35.687 111.598 35.7117C111.647 35.7612 111.697 35.8106 111.746 35.86L111.771 35.8847C111.87 35.9835 111.969 36.0577 112.043 36.1565C112.043 36.1565 112.043 36.1565 112.068 36.1812C112.117 36.2306 112.142 36.2553 112.192 36.3047C112.291 36.4036 112.39 36.4777 112.489 36.5765C112.538 36.6259 112.588 36.6754 112.637 36.7248C112.712 36.7989 112.786 36.873 112.885 36.9472L112.91 36.9719C116.945 40.7275 121.129 46.4846 124.372 52.7852C126.055 56.0467 127.466 59.3823 128.556 62.7426C129.843 62.0014 131.155 61.3342 132.492 60.6918C133.953 60 135.388 59.4317 136.775 58.9128C133.185 48.5601 127.491 39.4427 121.946 33.2903C120.955 32.2032 119.99 31.2148 119.049 30.3253C118.851 30.1277 118.628 29.93 118.406 29.7323C115.88 27.3356 112.439 24.0741 108.231 24C108.181 24 108.132 24 107.958 24C107.785 24 107.736 24 107.686 24C103.477 24.0494 100.036 27.3356 97.5111 29.7323C97.4121 29.8312 97.3131 29.93 97.2141 30.0041C97.0903 30.1277 96.9665 30.2265 96.8675 30.3253C90.5298 36.28 83.4 46.7811 79.1914 58.9375Z" fill="url(#paint1_linear_8473_25836)"/>
<path d="M85.1328 72.0087C90.7773 75.7643 97.0654 81.9167 100.581 91.8494V91.8742C100.655 92.0965 100.729 92.3189 100.804 92.5413C100.804 92.566 100.828 92.5907 100.828 92.6401C100.903 92.8378 100.977 93.0602 101.026 93.2578C101.051 93.3072 101.051 93.3814 101.076 93.4308C101.125 93.6037 101.2 93.8014 101.249 93.9744C101.274 94.0485 101.299 94.1473 101.323 94.2215C101.373 94.3944 101.423 94.5427 101.472 94.7156C101.497 94.8145 101.522 94.9133 101.546 95.0121C101.596 95.1604 101.621 95.3086 101.67 95.4569C101.695 95.5804 101.744 95.704 101.769 95.8275C101.794 95.951 101.843 96.0746 101.868 96.1981C101.918 96.3464 101.942 96.5193 101.967 96.6676C101.992 96.7664 102.017 96.8652 102.041 96.9641C102.091 97.137 102.116 97.3347 102.165 97.5077C102.19 97.5818 102.19 97.6559 102.215 97.7547C102.264 97.9524 102.289 98.1501 102.339 98.3477C102.363 98.4219 102.363 98.4713 102.388 98.5454C102.438 98.7678 102.462 98.9902 102.512 99.2125C102.512 99.262 102.537 99.3114 102.537 99.3608C102.586 99.6079 102.611 99.8302 102.66 100.077C102.66 100.102 102.66 100.151 102.685 100.176C102.735 100.423 102.759 100.67 102.809 100.942C102.809 100.967 102.809 100.992 102.834 101.016C102.883 101.288 102.908 101.56 102.933 101.832V101.856C102.957 102.128 103.007 102.425 103.032 102.721C103.032 102.721 103.032 102.721 103.032 102.746C103.056 103.042 103.081 103.314 103.131 103.611C103.304 105.365 103.378 107.218 103.378 109.145C103.378 108.997 103.378 108.478 103.378 108.478C103.477 100.226 105.26 92.6895 108.057 85.9936C107.488 84.6346 106.844 83.3004 106.176 81.9908C105.953 81.5708 105.73 81.1508 105.483 80.7307C105.161 80.1624 104.839 79.6188 104.517 79.0753C104.319 78.7541 104.121 78.4575 103.923 78.1363C99.7886 71.811 94.1689 66.5234 87.4599 62.6689C86.3954 65.881 85.6279 68.9696 85.1328 72.0087Z" fill="url(#paint2_linear_8473_25836)"/>
<path d="M112.167 78.2347C110.558 80.7055 109.171 83.3246 108.008 86.0919C110.805 92.7879 112.588 100.324 112.687 108.576V109.293C112.687 109.293 112.687 109.293 112.687 109.268C112.687 92.096 119.421 81.6444 126.501 75.3932C126.575 75.3191 126.649 75.2697 126.724 75.1956C126.773 75.1461 126.847 75.0967 126.897 75.0473C128.234 73.886 129.595 72.8977 130.907 72.0329C130.412 68.9938 129.645 65.8805 128.63 62.792C121.946 66.6218 116.301 71.9094 112.167 78.2347Z" fill="url(#paint3_linear_8473_25836)"/>
<path d="M103.329 122.71C101.893 122.191 100.235 120.709 98.4522 119.35C95.1596 116.854 91.5204 112.58 88.5991 105.34C88.5744 105.266 88.5249 105.192 88.5001 105.093C88.4506 104.97 88.4011 104.871 88.3516 104.747C88.3021 104.624 88.2526 104.476 88.203 104.352C88.1783 104.278 88.1535 104.229 88.1288 104.154C87.906 103.586 87.7079 102.968 87.4851 102.375C87.4108 102.128 87.3118 101.881 87.2375 101.634C86.4948 99.3363 85.9007 97.0878 85.4303 94.79C85.3808 94.5676 85.3313 94.3205 85.3066 94.0981C85.2818 94.024 85.2818 93.9746 85.257 93.9005C84.2173 88.1681 84.044 82.2381 84.6629 75.4681C84.7619 74.3315 84.9104 73.1949 85.1085 72.0336C83.1775 70.7488 81.3208 69.7604 79.6621 68.9945C78.6718 68.525 77.6816 68.105 76.7161 67.7344C76.32 69.6122 76.0229 71.5147 75.8001 73.442C75.7506 73.8373 75.7258 74.2327 75.6763 74.6033C75.1069 80.7804 75.1317 86.488 75.8496 91.9732C75.9486 92.7639 76.0724 93.5793 76.1962 94.3699C76.32 95.1359 76.4437 95.8771 76.5923 96.6184C77.1122 99.2622 77.8054 101.881 78.6471 104.476C80.2067 109.244 82.1377 113.445 84.4153 117.077C84.7124 117.522 85.0342 117.719 85.0342 118.04C90.8767 120.61 97.0411 122.191 103.329 122.71Z" fill="url(#paint4_linear_8473_25836)"/>
<path d="M96.3245 128.764C92.7843 126.787 89.5907 123.97 86.818 120.412C86.2239 119.646 85.6297 118.831 85.0603 117.991C84.6395 117.991 84.4909 117.719 83.872 117.447C81.6192 116.385 79.4159 115.174 77.3116 113.815C65.5523 106.328 57.0361 91.2563 57.0361 77.988C57.0361 77.2714 57.0361 76.5549 57.0609 75.8631C57.2094 71.045 57.8036 67.0422 58.2987 65.2138C58.9423 65.0902 59.8583 64.942 61.0466 64.8679C64.463 64.6702 70.0332 65.0655 76.7422 67.6599C77.3611 64.6702 78.2028 61.7299 79.193 58.8885C73.0039 56.5906 67.7061 55.8988 64.0421 55.7752C63.9184 55.7752 63.8193 55.7752 63.6956 55.7752C62.334 55.7258 60.0316 55.7505 57.7045 56.0964C57.4322 56.1459 57.1599 56.1953 56.8875 56.2447C56.8875 56.2447 56.8876 56.2447 56.8628 56.2447C55.0061 56.6153 53.1989 57.233 52.0106 58.2708C51.9115 58.3449 51.8373 58.4437 51.7382 58.5178C50.6737 59.5803 49.5844 61.3593 48.7427 67.0916C48.6932 67.5117 48.6189 67.9317 48.5694 68.3517C48.1981 71.3662 48 74.8006 48 77.9633C48 80.6318 48.2723 83.3991 48.817 86.1911C48.916 86.71 49.015 87.2042 49.1388 87.7231C49.1883 87.9701 49.2626 88.2419 49.3121 88.489C50.4261 93.0848 52.2334 97.7052 54.6347 102.054C57.7045 107.613 61.5665 112.53 66.0227 116.533C68.0527 118.361 70.2065 119.992 72.4346 121.425C82.8818 128.096 94.7648 131.704 106.846 131.901C104.915 131.877 100.929 131.358 96.3245 128.764Z" fill="url(#paint5_linear_8473_25836)"/>
<path d="M131.601 117.051C133.483 114.086 135.117 110.726 136.503 106.97C136.8 106.155 137.097 105.315 137.37 104.475C140.415 95.0858 141.38 85.5978 140.34 74.6026C140.192 73.046 139.994 71.4646 139.721 69.9327C139.647 69.5127 139.573 69.1174 139.499 68.6973C139.499 68.6479 139.474 68.6232 139.474 68.5738C139.474 68.5244 139.449 68.4749 139.449 68.4255C139.4 68.1784 139.35 67.9561 139.301 67.709C138.335 68.0796 137.37 68.4996 136.355 68.9691C134.696 69.7351 132.839 70.7234 130.908 72.0082C130.982 72.4283 131.032 72.8483 131.081 73.2684C131.18 74.0096 131.279 74.7261 131.329 75.4427C131.997 82.6575 131.75 88.9087 130.537 94.9869C130.091 97.2107 129.497 99.4097 128.779 101.633C128.061 103.833 127.294 105.784 126.477 107.539C126.452 107.588 126.427 107.662 126.402 107.712C126.353 107.835 126.303 107.934 126.254 108.058C124.694 111.319 122.986 113.864 121.278 115.865C121.228 115.94 121.154 116.014 121.105 116.063C121.08 116.088 121.055 116.137 121.006 116.162C120.956 116.211 120.931 116.261 120.882 116.286C120.832 116.335 120.783 116.409 120.733 116.458C120.709 116.483 120.684 116.508 120.684 116.533C117.837 119.621 114.99 121.87 112.762 122.685C119.025 122.166 125.189 120.585 131.007 117.99C130.982 117.694 131.329 117.496 131.601 117.051Z" fill="url(#paint6_linear_8473_25836)"/>
<path d="M167.303 67.1409C166.486 61.4086 165.372 59.6296 164.307 58.5672C163.936 58.1965 163.49 57.8753 162.97 57.5788C159.851 55.8245 154.677 55.7504 152.35 55.7998C148.686 55.8987 143.239 56.5658 136.852 58.9378C137.842 61.7792 138.659 64.7195 139.303 67.7092C147.002 64.7195 153.142 64.6701 156.335 65.016C156.905 65.0901 157.375 65.1643 157.747 65.2384C158.266 67.2645 158.96 71.9343 159.009 77.469C159.009 77.642 159.009 77.8149 159.009 78.0126C159.009 82.9789 157.821 88.2171 155.692 93.1835C155.518 93.6035 155.32 94.0236 155.147 94.4189C151.557 102.251 145.715 109.367 138.734 113.815C138.536 113.938 138.362 114.062 138.164 114.161C136.208 115.372 134.203 116.459 132.148 117.422C131.554 117.694 131.406 117.966 130.96 117.966C130.391 118.806 129.821 119.621 129.202 120.387C126.43 123.945 123.211 126.762 119.696 128.739C115.116 131.308 111.106 131.852 109.125 131.926C120.439 131.753 131.604 128.566 141.556 122.685C141.605 122.661 141.68 122.611 141.729 122.586C142.323 122.216 142.942 121.87 143.536 121.474C150.716 116.879 156.88 110.183 161.361 102.078C164.975 95.5308 167.228 88.4148 167.822 81.6694C167.946 80.434 167.996 79.1986 167.996 77.9879C168.045 74.4299 167.773 70.4518 167.303 67.1409Z" fill="url(#paint7_linear_8473_25836)"/>
<defs>
<linearGradient id="paint0_linear_8473_25836" x1="108.027" y1="111.281" x2="108.027" y2="92.845" gradientUnits="userSpaceOnUse">
<stop stop-color="#F15E22"/>
<stop offset="1" stop-color="#EF0B06"/>
</linearGradient>
<linearGradient id="paint1_linear_8473_25836" x1="80.3107" y1="43.3924" x2="110.5" y2="43.3924" gradientUnits="userSpaceOnUse">
<stop stop-color="#FCA800"/>
<stop offset="0.1086" stop-color="#F7A804"/>
<stop offset="0.2331" stop-color="#E9A910"/>
<stop offset="0.3656" stop-color="#D2AB24"/>
<stop offset="0.5038" stop-color="#B2AD40"/>
<stop offset="0.6462" stop-color="#89B064"/>
<stop offset="0.7923" stop-color="#56B390"/>
<stop offset="0.9387" stop-color="#1BB7C3"/>
<stop offset="1" stop-color="#00B9DA"/>
</linearGradient>
<linearGradient id="paint2_linear_8473_25836" x1="99.9808" y1="88.6145" x2="90.9771" y2="75.9556" gradientUnits="userSpaceOnUse">
<stop offset="0.2043" stop-color="#F15E22"/>
<stop offset="0.9797" stop-color="#FCB514"/>
</linearGradient>
<linearGradient id="paint3_linear_8473_25836" x1="112.127" y1="110.485" x2="126.847" y2="47.2221" gradientUnits="userSpaceOnUse">
<stop offset="0.0203001" stop-color="#FCB514"/>
<stop offset="0.7957" stop-color="#F15E22"/>
</linearGradient>
<linearGradient id="paint4_linear_8473_25836" x1="83.154" y1="95.2158" x2="122.684" y2="95.2158" gradientUnits="userSpaceOnUse">
<stop stop-color="#FCA800"/>
<stop offset="0.1039" stop-color="#F7A804"/>
<stop offset="0.2284" stop-color="#E8AA11"/>
<stop offset="0.3635" stop-color="#D0AC26"/>
<stop offset="0.5061" stop-color="#AEAF44"/>
<stop offset="0.6547" stop-color="#83B36A"/>
<stop offset="0.8082" stop-color="#4EB799"/>
<stop offset="0.9629" stop-color="#10BDCF"/>
<stop offset="1" stop-color="#00BEDD"/>
</linearGradient>
<linearGradient id="paint5_linear_8473_25836" x1="62.5646" y1="75.6455" x2="80.4191" y2="98.3454" gradientUnits="userSpaceOnUse">
<stop stop-color="#FCA800"/>
<stop offset="0.7957" stop-color="#F15E22"/>
</linearGradient>
<linearGradient id="paint6_linear_8473_25836" x1="122.393" y1="128.789" x2="133.05" y2="73.3628" gradientUnits="userSpaceOnUse">
<stop stop-color="#FCB514"/>
<stop offset="0.2967" stop-color="#009444"/>
<stop offset="0.305" stop-color="#009547"/>
<stop offset="0.4773" stop-color="#00A27B"/>
<stop offset="0.6388" stop-color="#00ACA4"/>
<stop offset="0.7846" stop-color="#00B3C2"/>
<stop offset="0.9099" stop-color="#00B7D4"/>
<stop offset="1" stop-color="#00B9DA"/>
</linearGradient>
<linearGradient id="paint7_linear_8473_25836" x1="132.985" y1="139.207" x2="141.76" y2="88.3363" gradientUnits="userSpaceOnUse">
<stop offset="0.268" stop-color="#EF4136"/>
<stop offset="0.7957" stop-color="#F15E22"/>
</linearGradient>
</defs>
</svg>
